<svg width="32" height="32" viewBox="0 0 32 32" fill="none" xmlns="http://www.w3.org/2000/svg">
<path d="M16 30L15.1954 30.5938C15.3839 30.8493 15.6825 31 16 31C16.3175 31 16.6161 30.8493 16.8046 30.5938L16 30ZM16 30C16.8046 30.5938 16.8047 30.5937 16.8048 30.5935L16.8053 30.5929L16.8068 30.5909L16.8122 30.5835L16.8325 30.5558L16.91 30.4496C16.9774 30.3569 17.0757 30.2209 17.2004 30.0464C17.4498 29.6973 17.8051 29.1936 18.2311 28.572C19.0825 27.3297 20.2192 25.612 21.3576 23.714C22.494 21.8191 23.6427 19.7268 24.5103 17.7381C25.365 15.779 26 13.8041 26 12.1818C26 6.12579 21.6352 1 16 1C10.3648 1 6 6.12579 6 12.1818C6 13.8041 6.63502 15.779 7.48968 17.7381C8.35728 19.7268 9.50598 21.8191 10.6424 23.714C11.7808 25.612 12.9175 27.3297 13.7689 28.572C14.1949 29.1936 14.5502 29.6973 14.7996 30.0464C14.9243 30.2209 15.0226 30.3569 15.09 30.4496L15.1675 30.5558L15.1878 30.5835L15.1932 30.5909L15.1947 30.5929L15.1952 30.5935C15.1953 30.5937 15.1954 30.5938 16 30Z" stroke="#7B7B7B" stroke-width="2" stroke-linejoin="round"/>
<circle cx="16" cy="11" r="4" stroke="#808080" stroke-width="2"/>
</svg>
