<svg width="32" height="32" viewBox="0 0 32 32" fill="none" xmlns="http://www.w3.org/2000/svg">
<g clip-path="url(#clip0_167_8)">
<path d="M22.9378 0.000488281H8.9727C4.01727 0.000488281 0 4.01777 0 8.97319V22.9383C0 27.8941 4.01727 31.911 8.9727 31.911H22.9378C27.8936 31.911 31.9109 27.8941 31.9109 22.9383V8.97319C31.9109 4.01777 27.8936 0.000488281 22.9378 0.000488281ZM29.8779 23.3495C29.7663 25.721 28.7755 27.2138 28.1478 27.8415C26.0554 29.9897 23.6558 29.9897 15.9554 29.9897C8.25462 29.9897 5.85543 29.9897 3.76265 27.8415C3.13494 27.2138 2.14458 25.721 2.03293 23.3495C1.92129 20.9776 1.86546 16.9322 1.89358 15.9559C1.86546 14.9792 1.92129 10.9338 2.03293 8.56194C2.14458 6.19045 3.13494 4.69768 3.76265 4.06997C5.85543 1.92177 8.25462 1.92177 15.9554 1.92177C23.6558 1.92177 26.0554 1.92177 28.1478 4.06997C28.7755 4.69768 29.7663 6.19045 29.8779 8.56194C29.9892 10.9338 30.045 14.9792 30.0173 15.9559C30.045 16.9322 29.9892 20.9776 29.8779 23.3495Z" fill="#7B7B7B"/>
<path d="M15.9556 7.71606C11.405 7.71606 7.71582 11.4052 7.71582 15.9558C7.71582 20.5064 11.405 24.1952 15.9556 24.1952C20.5062 24.1952 24.1949 20.5064 24.1949 15.9558C24.1949 11.4052 20.5062 7.71606 15.9556 7.71606ZM15.9556 22.1928C12.5106 22.1928 9.71823 19.4004 9.71823 15.9558C9.71823 12.5108 12.5106 9.71847 15.9556 9.71847C19.4002 9.71847 22.1929 12.5108 22.1929 15.9558C22.1929 19.4004 19.4002 22.1928 15.9556 22.1928Z" fill="#7B7B7B"/>
<path d="M26.3591 7.3842C26.3591 8.44484 25.4997 9.30467 24.439 9.30467C23.3784 9.30467 22.5186 8.44484 22.5186 7.3842C22.5186 6.32395 23.3784 5.46411 24.439 5.46411C25.4997 5.46411 26.3591 6.32395 26.3591 7.3842Z" fill="#7B7B7B"/>
</g>
<defs>
<clipPath id="clip0_167_8">
<rect width="32" height="32" fill="white"/>
</clipPath>
</defs>
</svg>
