<svg width="32" height="32" viewBox="0 0 32 32" fill="none" xmlns="http://www.w3.org/2000/svg">
<g clip-path="url(#clip0_168_37)">
<path d="M15.8823 29.0491L15.8812 29.0487C12.997 27.8822 10.3653 26.1787 8.12894 24.0297L8.12684 24.0277C5.91388 21.9136 4.14165 19.3889 2.91116 16.5967L2.91094 16.5962C1.6466 13.7313 0.996289 10.6376 1.001 7.51017V7.50866C1.001 6.53055 1.06341 5.55422 1.1898 4.58671C1.22785 4.50722 1.25585 4.4216 1.27204 4.33133C1.40383 3.59664 1.91083 2.97393 2.61612 2.69177L2.61678 2.69151L6.44076 1.15859L6.44097 1.15851C7.56729 0.706696 8.8693 1.26142 9.31833 2.36585L9.31859 2.3665L11.551 7.84639C11.5511 7.84654 11.5511 7.84668 11.5512 7.84682C11.8301 8.53243 11.8255 8.91008 11.7089 9.23016C11.5687 9.61512 11.2015 10.1009 10.3415 10.8488L8.12354 12.7293C7.75373 13.0429 7.66211 13.5765 7.90616 13.9955C10.3741 18.2319 13.9961 21.6912 18.354 23.9754C18.7774 24.1973 19.2987 24.0885 19.598 23.7157L20.9199 22.069C21.6421 21.1913 22.1197 20.8083 22.5064 20.6542C22.8318 20.5246 23.2188 20.5084 23.9212 20.7619L29.5184 22.7844L29.5194 22.7848C30.3913 23.0988 30.9702 23.9241 30.9702 24.835C30.9702 25.0866 30.9252 25.3379 30.8368 25.5792L29.4264 29.4251L29.4263 29.4255C29.2024 30.0368 28.7122 30.5206 28.0884 30.7376C28.0651 30.7457 28.0423 30.7546 28.0199 30.7643C28.0009 30.7685 27.982 30.7733 27.9633 30.7786C27.6821 30.8583 27.3889 30.8827 27.1011 30.8507C27.0447 30.8444 26.9879 30.8429 26.9313 30.8463C26.4141 30.877 25.8985 30.8933 25.3881 30.8933L25.3859 30.8933C22.1273 30.9004 18.8982 30.2731 15.8823 29.0491Z" stroke="#808080" stroke-width="2" stroke-linejoin="round"/>
</g>
<defs>
<clipPath id="clip0_168_37">
<rect width="32" height="32" fill="white"/>
</clipPath>
</defs>
</svg>
